<svg width="434" height="441" viewBox="0 0 434 441" fill="none" xmlns="http://www.w3.org/2000/svg">
<path d="M63.6383 404.641C148.188 453.12 285.228 453.12 369.797 404.641C454.365 356.162 454.347 277.572 369.797 229.103C285.247 180.635 148.207 180.635 63.6383 229.103C-20.9304 277.572 -20.8649 356.172 63.6383 404.641Z" fill="white"/>
<path d="M296.01 350.311L343.18 319.939C343.899 319.53 344.688 319.297 345.494 319.256C346.3 319.214 347.105 319.366 347.855 319.699L395.959 350.677C397.278 351.354 397.334 352.564 396.072 353.378L347.995 384.261C347.303 384.656 346.53 384.84 345.754 384.796C344.978 384.752 344.225 384.482 343.573 384.011L295.889 353.503C295.622 353.348 295.4 353.112 295.25 352.822C295.099 352.531 295.026 352.199 295.039 351.864C295.051 351.529 295.15 351.205 295.322 350.93C295.494 350.655 295.733 350.44 296.01 350.311Z" fill="#E0E0E0"/>
<path d="M220.221 324.612C246.82 324.612 268.382 313.148 268.382 299.006C268.382 284.864 246.82 273.4 220.221 273.4C193.623 273.4 172.061 284.864 172.061 299.006C172.061 313.148 193.623 324.612 220.221 324.612Z" fill="#E0E0E0"/>
<path d="M386.592 335.99C386.676 331.078 390.014 320.961 394.689 314.671C399.364 308.382 406.619 303.855 411.687 305.9C416.418 307.808 415.791 314.755 409.948 319.25C404.104 323.745 395.353 329.378 392.688 337.294L387.218 346.973L386.592 335.99Z" fill="#86C240"/>
<path opacity="0.1" d="M386.592 335.99C386.676 331.078 390.014 320.961 394.689 314.671C399.364 308.382 406.619 303.855 411.687 305.9C416.418 307.808 415.791 314.755 409.948 319.25C404.104 323.745 395.353 329.378 392.688 337.294L387.218 346.973L386.592 335.99Z" fill="black"/>
<path d="M386.16 342.707C386.231 342.704 386.299 342.675 386.353 342.624C386.407 342.573 386.445 342.503 386.459 342.425C389.666 325.737 402.045 312.314 409.366 309.446C409.446 309.412 409.512 309.347 409.55 309.261C409.588 309.176 409.596 309.078 409.572 308.987C409.558 308.942 409.537 308.9 409.508 308.865C409.48 308.829 409.446 308.801 409.408 308.78C409.369 308.76 409.328 308.748 409.285 308.746C409.243 308.744 409.2 308.751 409.16 308.768C401.681 311.688 389.087 325.299 385.833 342.269C385.816 342.361 385.832 342.458 385.877 342.537C385.922 342.617 385.994 342.674 386.076 342.697L386.16 342.707Z" fill="white"/>
<path d="M388.237 353.482C388.994 350.739 392.089 346.233 397.035 342.572C402.514 338.505 409.386 336.731 411.06 333.519C413.023 329.66 410.125 325.926 404.515 326.583C398.905 327.24 389.05 335.511 387.283 348.215L388.237 353.482Z" fill="#86C240"/>
<path d="M387.208 350.52C387.269 350.515 387.328 350.491 387.378 350.45C387.427 350.41 387.466 350.355 387.488 350.291C392.322 336.012 402.233 331.162 406.796 330.588C406.879 330.575 406.955 330.527 407.007 330.453C407.059 330.379 407.084 330.286 407.076 330.192C407.073 330.145 407.061 330.099 407.041 330.057C407.021 330.015 406.993 329.978 406.96 329.949C406.926 329.92 406.888 329.898 406.847 329.886C406.806 329.874 406.763 329.872 406.721 329.879C401.672 330.505 391.827 335.459 386.89 350.04C386.871 350.096 386.865 350.156 386.872 350.215C386.879 350.273 386.9 350.329 386.931 350.377C386.963 350.425 387.005 350.463 387.053 350.488C387.101 350.513 387.155 350.524 387.208 350.52Z" fill="white"/>
<path d="M78.5433 320.272L84.0783 316.747C84.0783 316.747 86.7337 300.434 84.7515 286.416C81.9466 266.704 69.9228 259.903 65.5564 261.864C61.1901 263.825 60.1616 269.666 68.0528 281.055C72.709 287.783 78.6929 301.988 78.5433 320.272Z" fill="#86C240"/>
<g opacity="0.1">
<path d="M78.5394 320.273L84.0744 316.747C84.0744 316.747 86.7298 300.435 84.7476 286.417C81.9427 266.704 69.9189 259.904 65.5525 261.865C61.1862 263.825 60.1577 269.666 68.0489 281.056C72.7051 287.783 78.689 301.989 78.5394 320.273Z" fill="black"/>
</g>
<path d="M80.5535 312.461H80.4975C80.3947 312.445 80.3016 312.385 80.2386 312.293C80.1755 312.201 80.1476 312.086 80.1609 311.971C82.4516 293.51 75.7945 273.296 68.324 265.15C68.2484 265.069 68.2049 264.957 68.2032 264.84C68.2014 264.722 68.2415 264.609 68.3147 264.525C68.3878 264.44 68.488 264.392 68.5933 264.39C68.6985 264.388 68.8 264.432 68.8757 264.514C76.4864 272.858 83.265 293.364 80.9462 312.085C80.9308 312.19 80.883 312.284 80.8112 312.353C80.7394 312.422 80.6481 312.46 80.5535 312.461Z" fill="white"/>
<path d="M63.199 330.181C62.3201 330.734 60.525 329.514 59.8331 328.992C58.6385 328.101 57.6719 326.879 57.0281 325.446C56.3201 323.829 56.0784 322.007 56.3363 320.231C56.4748 319.288 56.6748 318.357 56.9346 317.446C57.159 316.539 57.3928 315.642 57.6265 314.734C57.9105 313.864 58.0314 312.937 57.9818 312.012C57.7668 310.166 56.2989 308.883 54.9618 307.757C53.6248 306.63 51.9419 304.888 51.9512 302.656C52.0616 300.932 52.6795 299.297 53.709 298.005C54.644 296.649 55.794 295.46 56.6542 294.041C57.3417 293.045 57.7015 291.815 57.6733 290.558C57.5804 289.793 57.3481 289.059 56.9907 288.399C56.1817 287.021 55.472 285.573 54.8683 284.07C54.5759 283.31 54.4839 282.472 54.6031 281.656C54.7224 280.839 55.0479 280.077 55.5415 279.46C56.0271 279.053 56.5812 278.759 57.1707 278.596C57.7602 278.433 58.3731 278.404 58.9729 278.511C60.1065 278.655 61.1964 279.083 62.1612 279.762C65.3307 281.723 67.1353 285.906 70.5012 287.418C71.8359 287.879 73.194 288.252 74.5683 288.534C75.2566 288.676 75.9107 288.976 76.4887 289.416C77.0668 289.856 77.5559 290.426 77.9249 291.089C79.1591 293.843 76.8684 297.233 77.7379 300.153C78.5046 302.729 80.7485 303.72 82.0201 306.046C82.532 307.075 82.7383 308.258 82.6091 309.425C82.4979 311.402 82.0638 313.339 81.3282 315.141C80.5108 316.932 79.5731 318.651 78.5233 320.283C78.4952 320.346 63.3299 330.087 63.199 330.181Z" fill="#86C240"/>
<path d="M72.1757 324.841C72.1233 324.84 72.0716 324.827 72.0238 324.803C71.976 324.779 71.933 324.745 71.8973 324.702C71.8615 324.659 71.8338 324.609 71.8158 324.554C71.7978 324.499 71.7898 324.441 71.7923 324.382C72.4468 306.912 65.0698 287.627 59.7031 282.026C59.666 281.986 59.6365 281.938 59.6164 281.885C59.5963 281.832 59.5859 281.775 59.5859 281.718C59.5859 281.661 59.5963 281.604 59.6164 281.551C59.6365 281.498 59.666 281.45 59.7031 281.41C59.7781 281.329 59.8788 281.283 59.9835 281.283C60.0883 281.283 60.189 281.329 60.264 281.41C65.7337 287.116 73.2602 306.724 72.6057 324.434C72.5962 324.551 72.5458 324.66 72.4653 324.736C72.3849 324.812 72.2808 324.85 72.1757 324.841Z" fill="white"/>
<path d="M69.8278 304.2C69.7909 304.211 69.7524 304.211 69.7156 304.2C66.0068 303.053 62.1983 302.354 58.3556 302.114C58.2514 302.114 58.1516 302.068 58.0779 301.986C58.0043 301.904 57.9629 301.793 57.9629 301.676C57.9629 301.56 58.0043 301.449 58.0779 301.367C58.1516 301.284 58.2514 301.238 58.3556 301.238C62.2676 301.46 66.146 302.159 69.9213 303.324C69.9712 303.341 70.0178 303.369 70.0581 303.405C70.0984 303.442 70.1317 303.488 70.1561 303.539C70.1805 303.591 70.1954 303.647 70.2001 303.705C70.2047 303.763 70.1989 303.822 70.183 303.877C70.1604 303.965 70.1143 304.043 70.0508 304.101C69.9873 304.159 69.9095 304.193 69.8278 304.2Z" fill="white"/>
<path d="M128.855 258.516V256.013L88.9785 281.744L90.8765 282.995L128.855 258.516Z" fill="#37474F"/>
<path d="M79.1834 89.1111C79.2799 89.177 79.3558 89.2744 79.4009 89.3901C79.4461 89.5058 79.4583 89.6341 79.4359 89.7578L46.347 253.384L45.412 258.026C44.957 258.062 44.5016 257.962 44.0937 257.734L41.8778 256.305C41.7804 256.24 41.7037 256.143 41.6584 256.027C41.6131 255.911 41.6016 255.782 41.6254 255.658L75.5464 87.7343C75.5646 87.6434 75.6017 87.5585 75.6547 87.4866C75.7078 87.4146 75.7752 87.3575 75.8516 87.32C75.9281 87.2824 76.0113 87.2654 76.0947 87.2704C76.1781 87.2753 76.2593 87.302 76.3317 87.3484L79.1834 89.1111Z" fill="#37474F"/>
<path d="M83.2802 86.8789L49.191 255.606C49.131 255.871 48.9799 256.1 48.7702 256.242L46.5543 257.692C46.202 257.906 45.8055 258.014 45.4043 258.005L46.3393 253.363L79.4655 89.3091L83.2802 86.8789Z" fill="#455A64"/>
<path d="M87.0839 314.316V319.229C86.6588 319.239 86.2379 319.132 85.8591 318.916L83.8022 317.591C83.6641 317.52 83.5455 317.409 83.4584 317.27C83.3714 317.131 83.319 316.968 83.3066 316.799V170.205L87.112 172.656L87.0839 314.316Z" fill="#37474F"/>
<path d="M90.8898 170.215V316.799C90.868 316.959 90.8103 317.111 90.7221 317.241C90.6339 317.37 90.5179 317.473 90.3849 317.539L88.3373 318.864C87.9566 319.096 87.5274 319.211 87.0938 319.198V172.655L90.8898 170.215Z" fill="#455A64"/>
<path d="M136.385 287.449C135.967 287.43 135.559 287.297 135.197 287.063L133.084 285.697C132.95 285.611 132.834 285.493 132.744 285.353C132.653 285.213 132.591 285.053 132.561 284.883L109.906 153.047L113.712 155.498L135.571 282.745L136.385 287.449Z" fill="#37474F"/>
<path d="M140.182 284.977C140.162 285.149 140.103 285.312 140.012 285.453C139.92 285.593 139.799 285.705 139.659 285.78L137.723 287.032L137.63 287.094C137.247 287.321 136.819 287.436 136.386 287.428L135.573 282.683L113.713 155.478L117.528 153.037L140.145 284.81L140.182 284.977Z" fill="#455A64"/>
<path d="M89.5664 288.711L132.65 260.967V256.076L89.5664 283.82V288.711Z" fill="#455A64"/>
<path d="M30.1133 216.055V217.818C30.1361 218.288 30.2581 218.746 30.4693 219.154C30.6805 219.561 30.975 219.908 31.3288 220.165L44.0912 228.384C44.4668 228.595 44.8815 228.704 45.302 228.704C45.7225 228.704 46.1372 228.595 46.5128 228.384L154.232 159.013C154.583 158.754 154.874 158.407 155.084 157.999C155.293 157.592 155.414 157.136 155.438 156.667V154.904C155.416 154.435 155.295 153.978 155.086 153.57C154.876 153.162 154.584 152.815 154.232 152.557L141.469 144.338C141.093 144.122 140.676 144.01 140.254 144.01C139.831 144.01 139.414 144.122 139.038 144.338L31.3288 213.709C30.9744 213.965 30.6796 214.311 30.4683 214.719C30.257 215.127 30.1354 215.585 30.1133 216.055Z" fill="#86C240"/>
<path opacity="0.4" d="M31.3311 215.273L44.0935 223.492C44.4691 223.703 44.8838 223.813 45.3043 223.813C45.7248 223.813 46.1395 223.703 46.5151 223.492L154.234 154.122C154.381 154.067 154.51 153.962 154.601 153.822C154.691 153.682 154.74 153.513 154.74 153.339C154.74 153.166 154.691 152.997 154.601 152.857C154.51 152.717 154.381 152.612 154.234 152.557L141.471 144.338C141.095 144.122 140.679 144.01 140.256 144.01C139.833 144.01 139.416 144.122 139.04 144.338L31.3311 213.709C30.6579 214.136 30.6579 214.835 31.3311 215.273Z" fill="white"/>
<path opacity="0.1" d="M45.2973 223.815V228.707C44.8773 228.714 44.4624 228.602 44.0912 228.383L31.3288 220.143C30.976 219.885 30.6823 219.539 30.4712 219.131C30.2602 218.724 30.1376 218.267 30.1133 217.797V216.034C30.1279 215.622 30.2184 215.217 30.3793 214.846C30.5401 214.474 30.7679 214.144 31.0483 213.875C30.6275 214.303 30.7117 214.918 31.2914 215.252L44.0538 223.471C44.4349 223.703 44.8632 223.821 45.2973 223.815Z" fill="black"/>
<path d="M39.4829 220.519L35.93 218.235C35.3361 217.801 34.8348 217.226 34.4616 216.552C34.0884 215.878 33.8524 215.121 33.7702 214.334L26.4494 72.7674C26.4437 71.9947 26.612 71.2327 26.9387 70.5512C27.2654 69.8697 27.7401 69.2905 28.3193 68.8666L134.43 0.539436C135.057 0.184802 135.751 0 136.454 0C137.158 0 137.851 0.184802 138.478 0.539436L142.031 2.82361C142.625 3.25686 143.126 3.83121 143.498 4.50558C143.87 5.17994 144.103 5.93764 144.182 6.72445L151.512 148.291C151.516 149.064 151.347 149.825 151.02 150.506C150.694 151.187 150.22 151.767 149.642 152.192L43.5314 220.519C42.904 220.874 42.2105 221.059 41.5072 221.059C40.8038 221.059 40.1104 220.874 39.4829 220.519Z" fill="#E0E0E0"/>
<path d="M144.133 6.32812C143.918 5.18082 143.039 4.77405 142.02 5.42071L35.9281 73.7583C35.3343 74.1739 34.8528 74.7615 34.535 75.4584L26.9336 70.5667C27.2631 69.8867 27.7467 69.3149 28.3361 68.9084L134.428 0.539451C135.054 0.187328 135.746 0.00390625 136.448 0.00390625C137.149 0.00390625 137.841 0.187328 138.467 0.539451L142.039 2.83406C142.579 3.23171 143.042 3.74559 143.402 4.34557C143.761 4.94555 144.01 5.61956 144.133 6.32812Z" fill="#FAFAFA"/>
<path d="M34.043 77.6698L41.3732 219.226C41.3428 219.519 41.3919 219.815 41.5142 220.077C41.6366 220.338 41.8264 220.552 42.0592 220.691C42.292 220.831 42.557 220.889 42.8198 220.858C43.0826 220.828 43.3311 220.71 43.533 220.52L149.625 152.192C150.203 151.767 150.677 151.188 151.003 150.507C151.33 149.825 151.499 149.064 151.495 148.292L144.183 6.7247C144.212 6.43378 144.162 6.13999 144.04 5.88091C143.918 5.62184 143.729 5.40926 143.498 5.27038C143.268 5.1315 143.005 5.07264 142.744 5.10132C142.483 5.13 142.235 5.24491 142.033 5.43137L35.9317 73.7586C35.3494 74.1831 34.8716 74.7633 34.5417 75.4464C34.2118 76.1295 34.0404 76.8939 34.043 77.6698Z" fill="#F0F0F0"/>
<path d="M113.663 24.7892V32.4031C113.649 32.7334 113.564 33.055 113.416 33.3416C113.268 33.6281 113.061 33.8713 112.812 34.0511L68.9433 62.2852C68.6799 62.4354 68.3883 62.5136 68.0925 62.5136C67.7967 62.5136 67.5051 62.4354 67.2417 62.2852L65.1567 60.9293C64.9109 60.7494 64.7066 60.5073 64.5604 60.2228C64.4142 59.9383 64.3302 59.6193 64.3152 59.2918V55.4953L56.7419 50.6036L53.002 53.0442V44.356C53.018 44.0275 53.1034 43.708 53.2513 43.4234C53.3992 43.1388 53.6053 42.8972 53.8528 42.7185L97.7219 14.453C97.9853 14.3029 98.2769 14.2246 98.5728 14.2246C98.8686 14.2246 99.1602 14.3029 99.4236 14.453L112.841 23.1413C113.084 23.3245 113.285 23.5693 113.428 23.8556C113.571 24.1419 113.652 24.4617 113.663 24.7892Z" fill="#263238"/>
<path d="M113.663 24.7899V32.4038C113.647 32.7323 113.561 33.0518 113.413 33.3364C113.265 33.621 113.059 33.8625 112.812 34.0413L68.9426 62.2859C68.6792 62.4351 68.3872 62.5103 68.0918 62.5049V52.732C68.3881 52.7354 68.6805 52.6565 68.9426 52.5025L112.84 24.2371C113.251 23.9763 113.298 23.5591 112.989 23.2671C113.191 23.4541 113.355 23.6863 113.471 23.9486C113.587 24.211 113.652 24.4976 113.663 24.7899Z" fill="#37474F"/>
<path d="M53.7496 43.8136L67.2414 52.5018C67.5048 52.652 67.7964 52.7303 68.0922 52.7303C68.388 52.7303 68.6796 52.652 68.943 52.5018L112.84 24.2364C112.94 24.1949 113.027 24.1202 113.088 24.0223C113.149 23.9245 113.182 23.8081 113.182 23.6888C113.182 23.5696 113.149 23.4532 113.088 23.3553C113.027 23.2575 112.94 23.1828 112.84 23.1413L99.3485 14.453C99.0851 14.3029 98.7935 14.2246 98.4977 14.2246C98.2019 14.2246 97.9103 14.3029 97.6468 14.453L53.7496 42.7184C53.645 42.7549 53.5536 42.8277 53.4886 42.9262C53.4237 43.0247 53.3887 43.1438 53.3887 43.266C53.3887 43.3883 53.4237 43.5074 53.4886 43.6059C53.5536 43.7044 53.645 43.7772 53.7496 43.8136Z" fill="#455A64"/>
<path d="M83.1191 74.3423L83.2033 75.9486C83.1868 76.1229 83.217 76.2989 83.2901 76.4541C83.3633 76.6093 83.476 76.7369 83.6141 76.8206C83.7522 76.9043 83.9095 76.9405 84.0661 76.9245C84.2226 76.9085 84.3714 76.8411 84.4936 76.7308L133.599 45.1174C133.947 44.8621 134.233 44.5138 134.431 44.104C134.629 43.6942 134.731 43.2359 134.73 42.7706L134.655 41.1644C134.673 40.9881 134.644 40.8098 134.571 40.6524C134.497 40.495 134.383 40.3659 134.243 40.2816C134.103 40.1974 133.944 40.1619 133.785 40.1798C133.627 40.1977 133.477 40.2682 133.355 40.3821L84.2598 72.0373C83.9146 72.2874 83.6299 72.6286 83.431 73.0306C83.232 73.4326 83.1249 73.8832 83.1191 74.3423Z" fill="#37474F"/>
<path d="M87.0086 83.5101L87.1489 86.1593C87.1492 86.4698 87.0801 86.7754 86.9479 87.0486C86.8156 87.3218 86.6244 87.5539 86.3915 87.7238L84.6805 88.7251C84.6 88.8024 84.5003 88.8505 84.3947 88.863C84.289 88.8756 84.1825 88.852 84.0892 88.7954C83.9958 88.7388 83.9201 88.6519 83.8721 88.5462C83.8241 88.4405 83.8061 88.321 83.8204 88.2036L83.6895 85.5544C83.6891 85.2439 83.7582 84.9383 83.8904 84.6651C84.0227 84.3919 84.2139 84.1599 84.4468 83.9899L86.1484 82.9469C86.2311 82.8643 86.3352 82.8131 86.4456 82.8008C86.556 82.7884 86.6671 82.8155 86.7628 82.8782C86.8586 82.9409 86.9339 83.0359 86.9781 83.1494C87.0223 83.263 87.033 83.3893 87.0086 83.5101Z" fill="#86C240"/>
<path d="M134.186 56.8926L92.2714 83.8542C92.1492 83.9645 92.0004 84.0319 91.8438 84.0479C91.6873 84.0639 91.53 84.0277 91.3919 83.944C91.2538 83.8603 91.1411 83.7327 91.0679 83.5775C90.9948 83.4223 90.9646 83.2464 90.9811 83.072L90.9063 81.4658C90.904 81.0003 91.0064 80.5416 91.204 80.1316C91.4016 79.7217 91.6882 79.3735 92.0376 79.119L133.915 52.1573C134.037 52.047 134.186 51.9796 134.343 51.9637C134.499 51.9477 134.657 51.9838 134.795 52.0676C134.933 52.1513 135.046 52.2788 135.119 52.4341C135.192 52.5893 135.222 52.7652 135.206 52.9396L135.29 54.5562C135.296 55.0176 135.198 55.4733 135.005 55.8816C134.813 56.2898 134.531 56.6375 134.186 56.8926Z" fill="#455A64"/>
<path d="M87.4852 95.3373L87.6161 97.9866C87.6164 98.297 87.5473 98.6027 87.4151 98.8759C87.2829 99.149 87.0916 99.3811 86.8587 99.5511L85.1571 100.646C85.0765 100.723 84.9768 100.772 84.8712 100.784C84.7656 100.797 84.659 100.773 84.5657 100.717C84.4724 100.66 84.3967 100.573 84.3487 100.467C84.3007 100.362 84.2826 100.242 84.2969 100.125L84.166 97.4755C84.1657 97.1651 84.2348 96.8594 84.367 96.5862C84.4992 96.3131 84.6905 96.081 84.9233 95.911L86.625 94.868C86.7026 94.7952 86.7975 94.7491 86.8982 94.7353C86.9988 94.7215 87.1009 94.7406 87.192 94.7904C87.2831 94.8401 87.3593 94.9182 87.4114 95.0153C87.4634 95.1124 87.4891 95.2243 87.4852 95.3373Z" fill="#86C240"/>
<path opacity="0.1" d="M87.4852 95.3373L87.6161 97.9866C87.6164 98.297 87.5473 98.6027 87.4151 98.8759C87.2829 99.149 87.0916 99.3811 86.8587 99.5511L85.1571 100.646C85.0765 100.723 84.9768 100.772 84.8712 100.784C84.7656 100.797 84.659 100.773 84.5657 100.717C84.4724 100.66 84.3967 100.573 84.3487 100.467C84.3007 100.362 84.2826 100.242 84.2969 100.125L84.166 97.4755C84.1657 97.1651 84.2348 96.8594 84.367 96.5862C84.4992 96.3131 84.6905 96.081 84.9233 95.911L86.625 94.868C86.7026 94.7952 86.7975 94.7491 86.8982 94.7353C86.9988 94.7215 87.1009 94.7406 87.192 94.7904C87.2831 94.8401 87.3593 94.9182 87.4114 95.0153C87.4634 95.1124 87.4891 95.2243 87.4852 95.3373Z" fill="black"/>
<path d="M134.666 68.7734L92.7694 95.7455C92.6472 95.8558 92.4984 95.9232 92.3419 95.9392C92.1853 95.9552 92.0281 95.919 91.89 95.8353C91.7518 95.7516 91.6391 95.624 91.566 95.4688C91.4928 95.3136 91.4626 95.1377 91.4791 94.9633L91.4043 93.357C91.4029 92.8917 91.5056 92.4334 91.7032 92.0236C91.9007 91.6138 92.1869 91.2655 92.5356 91.0103L134.432 64.0382C134.554 63.9279 134.703 63.8605 134.859 63.8445C135.016 63.8285 135.173 63.8647 135.311 63.9484C135.45 64.0322 135.562 64.1597 135.635 64.3149C135.709 64.4701 135.739 64.6461 135.722 64.8205L135.806 66.4371C135.806 66.9018 135.702 67.359 135.502 67.7671C135.303 68.1751 135.015 68.5211 134.666 68.7734Z" fill="#455A64"/>
<path d="M87.9517 107.322L88.0919 109.961C88.0922 110.271 88.0231 110.577 87.8909 110.85C87.7587 111.123 87.5675 111.355 87.3346 111.525L85.6142 112.631C85.5323 112.703 85.4334 112.746 85.3296 112.756C85.2259 112.766 85.1218 112.741 85.0303 112.686C84.9388 112.63 84.8638 112.546 84.8147 112.444C84.7656 112.341 84.7445 112.225 84.754 112.109L84.6231 109.47C84.6202 109.159 84.6882 108.853 84.8207 108.579C84.9531 108.305 85.1458 108.074 85.3805 107.906L87.0915 106.8C87.172 106.723 87.2717 106.675 87.3774 106.662C87.483 106.65 87.5895 106.673 87.6829 106.73C87.7762 106.787 87.8519 106.874 87.8999 106.979C87.9479 107.085 87.966 107.204 87.9517 107.322Z" fill="#86C240"/>
<path opacity="0.2" d="M87.9517 107.322L88.0919 109.961C88.0922 110.271 88.0231 110.577 87.8909 110.85C87.7587 111.123 87.5675 111.355 87.3346 111.525L85.6142 112.631C85.5323 112.703 85.4334 112.746 85.3296 112.756C85.2259 112.766 85.1218 112.741 85.0303 112.686C84.9388 112.63 84.8638 112.546 84.8147 112.444C84.7656 112.341 84.7445 112.225 84.754 112.109L84.6231 109.47C84.6202 109.159 84.6882 108.853 84.8207 108.579C84.9531 108.305 85.1458 108.074 85.3805 107.906L87.0915 106.8C87.172 106.723 87.2717 106.675 87.3774 106.662C87.483 106.65 87.5895 106.673 87.6829 106.73C87.7762 106.787 87.8519 106.874 87.8999 106.979C87.9479 107.085 87.966 107.204 87.9517 107.322Z" fill="black"/>
<path d="M135.12 80.7573L93.2049 107.719C93.0828 107.829 92.934 107.897 92.7774 107.913C92.6209 107.929 92.4636 107.893 92.3255 107.809C92.1874 107.725 92.0747 107.597 92.0015 107.442C91.9284 107.287 91.8982 107.111 91.9147 106.937L91.8399 105.341C91.8376 104.875 91.94 104.417 92.1376 104.007C92.3352 103.597 92.6218 103.249 92.9712 102.994L134.858 76.0221C134.98 75.9118 135.129 75.8444 135.286 75.8284C135.442 75.8124 135.6 75.8486 135.738 75.9323C135.876 76.016 135.988 76.1436 136.062 76.2988C136.135 76.454 136.165 76.63 136.148 76.8043L136.233 78.4106C136.236 78.874 136.136 79.331 135.942 79.7407C135.748 80.1503 135.465 80.4997 135.12 80.7573Z" fill="#455A64"/>
<path d="M53.125 127.712L73.4328 114.602C73.5547 114.488 73.7045 114.417 73.8627 114.4C74.021 114.382 74.1804 114.417 74.3204 114.501C74.4603 114.586 74.5744 114.715 74.6479 114.872C74.7213 115.03 74.7508 115.208 74.7324 115.384L74.9287 119.17C74.931 119.636 74.8286 120.094 74.631 120.504C74.4334 120.914 74.1468 121.262 73.7974 121.517L53.4803 134.617C53.3584 134.731 53.2086 134.801 53.0504 134.819C52.8921 134.837 52.7327 134.802 52.5927 134.718C52.4528 134.633 52.3387 134.504 52.2652 134.347C52.1918 134.189 52.1623 134.011 52.1807 133.835L51.9844 130.049C51.9855 129.584 52.0904 129.127 52.2896 128.719C52.4887 128.312 52.7759 127.965 53.125 127.712Z" fill="#37474F"/>
<path d="M48.8872 158.368L78.7317 139.145C78.8539 139.035 79.0027 138.967 79.1592 138.951C79.3157 138.935 79.473 138.972 79.6111 139.055C79.7492 139.139 79.862 139.267 79.9351 139.422C80.0082 139.577 80.0385 139.753 80.022 139.927L80.1061 141.534C80.111 142 80.0097 142.459 79.8119 142.87C79.614 143.28 79.326 143.628 78.9748 143.88L49.1303 163.103C49.0081 163.213 48.8593 163.281 48.7028 163.297C48.5463 163.313 48.389 163.276 48.2509 163.193C48.1128 163.109 48 162.981 47.9269 162.826C47.8537 162.671 47.8235 162.495 47.84 162.321L47.7559 160.694C47.7542 160.231 47.8569 159.776 48.0547 159.369C48.2524 158.963 48.5387 158.618 48.8872 158.368Z" fill="#455A64"/>
<path d="M49.5416 170.997L79.386 151.764C79.5063 151.649 79.6548 151.578 79.8122 151.559C79.9695 151.54 80.1284 151.574 80.2679 151.658C80.4074 151.741 80.521 151.87 80.5939 152.026C80.6668 152.183 80.6955 152.361 80.6763 152.536L80.7605 154.153C80.7636 154.618 80.6616 155.077 80.4639 155.487C80.2662 155.898 79.9791 156.246 79.6291 156.499L49.7846 175.712C49.6631 175.821 49.5153 175.888 49.3597 175.904C49.2042 175.92 49.0478 175.885 48.9101 175.803C48.7725 175.72 48.6596 175.595 48.5857 175.441C48.5117 175.288 48.48 175.113 48.4944 174.94L48.4102 173.344C48.4071 172.878 48.5091 172.419 48.7068 172.009C48.9045 171.599 49.1916 171.251 49.5416 170.997Z" fill="#455A64"/>
<path d="M50.1977 183.639L80.0422 164.385C80.1644 164.275 80.3132 164.207 80.4697 164.191C80.6263 164.175 80.7835 164.211 80.9216 164.295C81.0598 164.379 81.1725 164.506 81.2456 164.662C81.3188 164.817 81.349 164.993 81.3325 165.167L81.4166 166.773C81.4215 167.239 81.3202 167.699 81.1224 168.11C80.9245 168.52 80.6365 168.868 80.2853 169.12L50.4408 188.332C50.3186 188.443 50.1699 188.51 50.0133 188.526C49.8568 188.542 49.6995 188.506 49.5614 188.422C49.4233 188.338 49.3105 188.211 49.2374 188.056C49.1643 187.9 49.134 187.724 49.1506 187.55L49.0664 185.975C49.0665 185.512 49.17 185.055 49.3675 184.647C49.565 184.24 49.8503 183.893 50.1977 183.639Z" fill="#455A64"/>
<path d="M50.8632 196.26L80.6984 176.995C80.8197 176.882 80.9685 176.812 81.1257 176.794C81.2829 176.776 81.4414 176.811 81.5809 176.894C81.7204 176.976 81.8346 177.104 81.9089 177.259C81.9832 177.415 82.0142 177.592 81.998 177.767L82.0821 179.384C82.0809 179.85 81.976 180.308 81.7769 180.718C81.5778 181.127 81.2908 181.475 80.9415 181.731L51.1344 200.943C51.0124 201.057 50.8627 201.127 50.7044 201.145C50.5462 201.163 50.3868 201.127 50.2468 201.043C50.1068 200.959 49.9927 200.83 49.9193 200.672C49.8458 200.515 49.8164 200.337 49.8348 200.16L49.76 198.606C49.7546 198.144 49.8527 197.687 50.0454 197.277C50.238 196.868 50.5191 196.518 50.8632 196.26Z" fill="#455A64"/>
<path d="M90.1998 139.145L94.4913 136.381C94.6135 136.271 94.7623 136.203 94.9188 136.187C95.0753 136.171 95.2326 136.207 95.3707 136.291C95.5088 136.375 95.6216 136.502 95.6947 136.658C95.7678 136.813 95.7981 136.989 95.7816 137.163L97.1092 162.362C97.1124 162.828 97.0104 163.287 96.8127 163.697C96.6149 164.107 96.3279 164.455 95.9779 164.709L91.6864 167.462C91.565 167.575 91.4162 167.645 91.259 167.664C91.1018 167.682 90.9433 167.647 90.8038 167.564C90.6643 167.481 90.5501 167.354 90.4758 167.198C90.4015 167.043 90.3705 166.866 90.3868 166.691L89.0684 141.492C89.0653 141.026 89.1673 140.567 89.365 140.157C89.5627 139.747 89.8498 139.399 90.1998 139.145Z" fill="#86C240"/>
<path d="M91.9254 172.165L96.217 169.402C96.8901 168.974 97.4605 169.151 97.4979 169.808C97.464 170.216 97.3404 170.609 97.1382 170.951C96.936 171.293 96.6613 171.574 96.3385 171.769L92.047 174.533C91.3831 174.971 90.8034 174.794 90.7754 174.137C90.806 173.728 90.9271 173.334 91.1278 172.99C91.3285 172.646 91.6026 172.362 91.9254 172.165Z" fill="#37474F"/>
<path d="M105.475 141.678L109.767 138.914C109.889 138.8 110.038 138.73 110.197 138.712C110.355 138.694 110.514 138.73 110.654 138.814C110.794 138.898 110.908 139.027 110.982 139.185C111.055 139.342 111.085 139.52 111.066 139.697L111.758 152.901C111.76 153.367 111.658 153.825 111.46 154.235C111.263 154.645 110.976 154.993 110.627 155.248L106.298 158.012C106.176 158.126 106.026 158.196 105.868 158.214C105.71 158.232 105.55 158.197 105.41 158.112C105.27 158.028 105.156 157.899 105.083 157.741C105.009 157.584 104.98 157.406 104.998 157.229L104.344 144.004C104.345 143.542 104.448 143.088 104.646 142.682C104.843 142.276 105.128 141.931 105.475 141.678Z" fill="#86C240"/>
<path opacity="0.1" d="M105.475 141.678L109.767 138.914C109.889 138.8 110.038 138.73 110.197 138.712C110.355 138.694 110.514 138.73 110.654 138.814C110.794 138.898 110.908 139.027 110.982 139.185C111.055 139.342 111.085 139.52 111.066 139.697L111.758 152.901C111.76 153.367 111.658 153.825 111.46 154.235C111.263 154.645 110.976 154.993 110.627 155.248L106.298 158.012C106.176 158.126 106.026 158.196 105.868 158.214C105.71 158.232 105.55 158.197 105.41 158.112C105.27 158.028 105.156 157.899 105.083 157.741C105.009 157.584 104.98 157.406 104.998 157.229L104.344 144.004C104.345 143.542 104.448 143.088 104.646 142.682C104.843 142.276 105.128 141.931 105.475 141.678Z" fill="black"/>
<path d="M106.576 162.779L110.867 160.015C111.541 159.587 112.111 159.764 112.139 160.422C112.108 160.829 111.986 161.221 111.785 161.564C111.585 161.906 111.311 162.187 110.989 162.382L106.697 165.146C106.024 165.574 105.454 165.397 105.426 164.74C105.457 164.332 105.579 163.94 105.779 163.597C105.98 163.255 106.254 162.974 106.576 162.779Z" fill="#37474F"/>
<path d="M119.178 112.997L123.47 110.233C123.592 110.122 123.741 110.055 123.897 110.039C124.054 110.023 124.211 110.059 124.349 110.143C124.487 110.226 124.6 110.354 124.673 110.509C124.746 110.664 124.777 110.84 124.76 111.015L126.406 143.452C126.407 143.918 126.304 144.376 126.107 144.786C125.909 145.195 125.623 145.544 125.274 145.799L120.983 148.563C120.861 148.677 120.711 148.747 120.553 148.765C120.395 148.783 120.235 148.748 120.095 148.663C119.955 148.579 119.841 148.45 119.768 148.293C119.694 148.135 119.665 147.957 119.683 147.781L118.047 115.343C118.044 114.878 118.146 114.419 118.344 114.008C118.541 113.598 118.828 113.25 119.178 112.997Z" fill="#86C240"/>
<path opacity="0.2" d="M119.178 112.997L123.47 110.233C123.592 110.122 123.741 110.055 123.897 110.039C124.054 110.023 124.211 110.059 124.349 110.143C124.487 110.226 124.6 110.354 124.673 110.509C124.746 110.664 124.777 110.84 124.76 111.015L126.406 143.452C126.407 143.918 126.304 144.376 126.107 144.786C125.909 145.195 125.623 145.544 125.274 145.799L120.983 148.563C120.861 148.677 120.711 148.747 120.553 148.765C120.395 148.783 120.235 148.748 120.095 148.663C119.955 148.579 119.841 148.45 119.768 148.293C119.694 148.135 119.665 147.957 119.683 147.781L118.047 115.343C118.044 114.878 118.146 114.419 118.344 114.008C118.541 113.598 118.828 113.25 119.178 112.997Z" fill="black"/>
<path d="M121.255 153.298L125.547 150.534C126.21 150.096 126.79 150.274 126.818 150.931C126.788 151.34 126.666 151.734 126.466 152.078C126.265 152.422 125.991 152.705 125.668 152.902L121.377 155.666C120.703 156.094 120.133 155.916 120.096 155.259C120.13 154.851 120.253 154.459 120.455 154.117C120.658 153.775 120.932 153.494 121.255 153.298Z" fill="#37474F"/>
<path d="M134.58 117.867L138.872 115.103C138.994 114.993 139.143 114.925 139.299 114.909C139.456 114.893 139.613 114.93 139.751 115.013C139.889 115.097 140.002 115.225 140.075 115.38C140.148 115.535 140.178 115.711 140.162 115.885L141.097 134.002C141.098 134.467 140.995 134.925 140.795 135.334C140.596 135.742 140.307 136.088 139.956 136.339L135.665 139.103C135.543 139.212 135.395 139.279 135.24 139.295C135.084 139.312 134.928 139.276 134.79 139.194C134.653 139.112 134.54 138.986 134.466 138.832C134.392 138.679 134.36 138.504 134.374 138.331L133.439 120.214C133.439 119.748 133.543 119.289 133.742 118.879C133.942 118.469 134.23 118.121 134.58 117.867Z" fill="#86C240"/>
<path opacity="0.3" d="M134.58 117.867L138.872 115.103C138.994 114.993 139.143 114.925 139.299 114.909C139.456 114.893 139.613 114.93 139.751 115.013C139.889 115.097 140.002 115.225 140.075 115.38C140.148 115.535 140.178 115.711 140.162 115.885L141.097 134.002C141.098 134.467 140.995 134.925 140.795 135.334C140.596 135.742 140.307 136.088 139.956 136.339L135.665 139.103C135.543 139.212 135.395 139.279 135.24 139.295C135.084 139.312 134.928 139.276 134.79 139.194C134.653 139.112 134.54 138.986 134.466 138.832C134.392 138.679 134.36 138.504 134.374 138.331L133.439 120.214C133.439 119.748 133.543 119.289 133.742 118.879C133.942 118.469 134.23 118.121 134.58 117.867Z" fill="black"/>
<path d="M135.88 143.837L140.172 141.073C140.835 140.646 141.406 140.823 141.443 141.48C141.41 141.887 141.288 142.279 141.088 142.621C140.887 142.963 140.614 143.244 140.293 143.441L136.002 146.205C135.328 146.643 134.758 146.455 134.721 145.809C134.756 145.4 134.879 145.006 135.081 144.663C135.283 144.319 135.558 144.036 135.88 143.837Z" fill="#37474F"/>
<path d="M240.998 165.167L248.291 160.38C248.786 161.83 249.226 163.102 249.656 164.145C250.086 165.188 251.937 166.471 252.835 166.93C255.219 168.15 256.294 169.6 258.183 171.3C259.66 172.635 260.82 172.854 260.698 173.386C260.511 173.957 260.137 174.428 259.651 174.702C259.165 174.977 258.603 175.036 258.08 174.867C256.915 174.536 255.788 174.053 254.724 173.428C255.752 175.544 257.078 177.463 258.65 179.112C262.241 182.898 262.68 185.485 256.435 186.413C252.526 187.018 249.086 184.776 245.009 175.566C243.452 172.211 242.112 168.736 240.998 165.167Z" fill="#B16668"/>
<path d="M230.562 84.3657C229.733 86.9619 228.733 89.4859 227.57 91.9171C226.382 94.1804 227.383 130.289 227.981 133.314C228.58 136.339 240.426 165.908 240.426 165.908C242.09 166.302 243.817 166.212 245.441 165.648C247.065 165.084 248.532 164.063 249.701 162.685L240.931 131.739L240.342 105.414C240.342 105.414 240.688 86.3787 230.562 84.3657Z" fill="#86C240"/>
<path opacity="0.1" d="M230.562 84.3657C229.733 86.9619 228.733 89.4859 227.57 91.9171C226.382 94.1804 227.383 130.289 227.981 133.314C228.58 136.339 240.426 165.908 240.426 165.908C242.09 166.302 243.817 166.212 245.441 165.648C247.065 165.084 248.532 164.063 249.701 162.685L240.931 131.739L240.342 105.414C240.342 105.414 240.688 86.3787 230.562 84.3657Z" fill="black"/>
<path d="M193.442 292.716H202.203V275.986H193.442V292.716Z" fill="#B16668"/>
<path d="M229.262 280.054L238.013 280.388L238.453 262.688L229.262 262.354V280.054Z" fill="#B16668"/>
<path d="M194.675 156.594C194.675 165.981 194.096 220.217 194.096 220.217C193.89 222.898 191.58 227.675 191.393 237.343C191.132 251.361 193.067 284.393 193.067 284.393C194.579 285.223 196.236 285.673 197.921 285.711C199.606 285.749 201.278 285.374 202.819 284.612C202.819 284.612 209.7 237.886 211.234 224.014C212.599 211.894 217.33 179.561 217.33 179.561L224.099 220.468C223.089 225.559 222.724 230.783 223.014 235.987C223.426 242.412 228.755 274.579 228.755 274.579C230.282 275.54 231.979 276.116 233.727 276.265C235.475 276.415 237.231 276.135 238.872 275.444C238.872 275.444 239.395 224.963 239.489 219.122C239.61 212.405 236.983 154.644 236.983 154.644L194.675 156.594Z" fill="#37474F"/>
<path d="M202.205 287.939V286.552C202.673 286.552 202.963 287.053 203.14 288.315C203.271 289.212 203.393 289.89 203.655 291.079C204.047 292.787 204.56 294.457 205.188 296.075C206.422 299.485 207.46 300.748 210.302 304.732C211.274 305.832 212.182 306.999 213.023 308.226C213.547 309.269 213.734 312.2 212.836 312.867C209.526 315.329 204.505 315.391 200.952 314.234C199.628 313.821 198.438 312.992 197.524 311.845C196.611 310.699 196.012 309.283 195.801 307.767C195.67 306.87 195.717 305.952 195.623 305.045C195.314 302.983 194.56 301.035 193.426 299.371C192.769 298.398 192.208 297.349 191.752 296.242C191.014 294.229 191.603 291.965 192.07 289.984C192.482 288.252 192.921 286.354 193.445 286.511V287.554C194.695 288.646 196.242 289.227 197.83 289.201C199.111 289.264 202.215 288.982 202.205 287.939Z" fill="#263238"/>
<path d="M238.127 277.374C238.585 277.374 238.959 278.105 239.997 279.314C241.493 281.016 243.234 282.426 245.148 283.486C248.43 285.312 254.807 288.128 257.686 289.578C259.491 290.485 259.407 292.915 257.546 294.302C255.685 295.69 251.179 296.68 245.784 295.345C242.839 294.605 239.005 291.57 236.584 291.737C234.162 291.903 229.618 291.862 227.832 290.485C226.047 289.108 226.757 286.167 227.262 283.643C227.814 280.889 228.506 276.592 229.319 276.78V277.729C230.376 279.513 235.808 280.232 238.127 278.918V277.374Z" fill="#263238"/>
<path d="M217.367 179.519C221.88 177.937 226.028 175.274 229.522 171.717C229.522 171.717 227.166 176.63 220.172 181.209L223.557 217.63L217.367 179.519Z" fill="#263238"/>
<path d="M209.86 85.0228C206.887 85.8259 200.875 86.921 199.528 93.5441C197.911 101.492 197.378 118.816 197.378 118.816L196.826 157.407C202.857 162.299 225.016 164.969 237.703 154.633C237.703 154.633 236.151 108.355 236.151 101.158C236.151 93.9613 232.561 85.2939 222.66 84.6577L209.86 85.0228Z" fill="#F5F5F5"/>
<path d="M222.521 83.8545C222.521 83.8545 226.972 87.7971 228.178 93.6275C229.384 99.4579 229.581 164.552 229.581 164.552C229.581 164.552 235.77 163.279 238.669 160.734C238.669 160.734 238.295 109.366 237.734 100.876C236.799 87.9953 236.939 84.2822 222.559 82.9263L222.521 83.8545Z" fill="#86C240"/>
<path d="M207.269 82.9053C207.269 82.9053 215.525 88.5688 215.609 111.066C215.693 130.55 216.272 164.489 216.272 164.489C216.272 164.489 202.612 166.731 193.955 160.964C193.955 160.964 192.926 113.705 193.085 106.394C193.272 98.0497 195.03 87.1816 197.442 86.1073C200.642 84.7686 203.926 83.6982 207.269 82.9053Z" fill="#86C240"/>
<path d="M188.319 98.4775C184.449 105.779 176.071 120.589 176.071 120.589C175.333 119.943 157.718 107.635 153.744 102.138C152.937 100.061 151.934 98.0859 150.752 96.2455C149.237 94.0343 147.667 91.8753 146.077 89.7476C145.961 89.5815 145.822 89.4372 145.666 89.3199C145.067 88.9236 144.273 89.5077 144.076 90.2482C143.949 91.0117 144.031 91.8002 144.31 92.5115C144.591 93.4711 145.469 94.8061 144.245 95.0356C143.189 95.0915 142.139 94.8285 141.206 94.2742C139.654 93.5232 138.121 92.6993 136.625 91.8127C135.704 91.1388 134.653 90.7204 133.558 90.5924C132.757 90.6296 131.985 90.9394 131.347 91.4801C130.708 92.0208 130.234 92.7665 129.986 93.6171C129.76 94.4732 129.692 95.3719 129.789 96.2581C129.885 97.1442 130.143 97.9989 130.547 98.7695C131.369 100.305 132.463 101.636 133.764 102.681C136.503 105.048 140.131 106.133 143.45 107.114C145.124 107.617 146.706 108.443 148.125 109.554C150.771 111.64 164.552 124.719 171.153 130.101C177.128 134.983 178.811 133.074 182.298 129.131C185.786 125.189 198.931 106.655 198.931 106.655L188.319 98.4775Z" fill="#B16668"/>
<path d="M199.868 85.1475C190.911 88.0679 191.51 91.6037 185.544 102.232C179.579 112.86 175.587 117.668 175.587 117.668L156.551 104.287C153.82 106.494 151.704 109.517 150.445 113.006C150.445 113.006 169.584 129.569 172.249 131.426C176.045 134.075 177.999 135.097 181.113 132.156C184.226 129.214 196.83 113.757 196.83 113.757C202.598 107.28 203.795 89.9348 199.868 85.1475Z" fill="#86C240"/>
<path opacity="0.1" d="M199.868 85.1475C190.911 88.0679 191.51 91.6037 185.544 102.232C179.579 112.86 175.587 117.668 175.587 117.668L156.551 104.287C153.82 106.494 151.704 109.517 150.445 113.006C150.445 113.006 169.584 129.569 172.249 131.426C176.045 134.075 177.999 135.097 181.113 132.156C184.226 129.214 196.83 113.757 196.83 113.757C202.598 107.28 203.795 89.9348 199.868 85.1475Z" fill="black"/>
<path opacity="0.1" d="M206.328 95.2236L210.105 100.449L208.217 106.384L213.182 120.589L207.198 106.384L209.292 100.783L206.328 95.2236Z" fill="black"/>
<path opacity="0.1" d="M232.981 93.5439L232.168 98.9467L235.44 103.692L230.887 119.692L234.412 103.87L231.392 99.4265L232.981 93.5439Z" fill="black"/>
<path d="M232.544 62.3986C237.243 57.1564 237.243 48.6571 232.544 43.4149C227.845 38.1727 220.226 38.1727 215.526 43.4149C210.827 48.6571 210.827 57.1564 215.526 62.3986C220.226 67.6407 227.845 67.6407 232.544 62.3986Z" fill="#263238"/>
<path d="M203.234 62.4629C203.234 62.4629 205.179 72.6843 205.965 74.3636C206.483 75.4002 207.341 76.1736 208.358 76.5226L208.208 69.3259L203.234 62.4629Z" fill="#263238"/>
<path d="M205.672 47.82C204.99 47.7279 204.298 47.8116 203.649 48.0648C203.001 48.3179 202.413 48.7338 201.932 49.2802C200.323 51.1159 201.221 56.842 203.222 62.4638L206.887 62.9331L205.672 47.82Z" fill="#263238"/>
<path d="M208.004 62.9322C207.265 63.4224 206.218 61.8892 205.311 60.7836C204.404 59.678 201.44 58.2804 199.953 61.7536C198.467 65.2268 201.262 69.9829 203.6 70.7965C207.62 72.2045 208.275 69.3258 208.275 69.3258L208.565 86.0139C211.37 89.9877 217.606 94.6708 220.962 94.0033C223.655 93.4714 224.235 88.4024 221.673 85.0856V80.1626C223.465 80.4817 225.283 80.5866 227.096 80.4755C230.05 79.9645 231.911 77.3465 232.809 73.7899C234.248 68.0429 234.8 63.3599 233.575 52.1267C232.238 39.7567 219.336 39.6107 212.37 44.5128C205.404 49.4149 208.004 62.9322 208.004 62.9322Z" fill="#B16668"/>
<path d="M207.997 64.3191C207.632 64.3191 206.221 61.7116 205.304 60.7833C204.033 59.49 205.669 47.8188 205.669 47.8188C205.241 46.7964 205.096 45.6549 205.253 44.5402C205.409 43.4255 205.86 42.3881 206.548 41.5607C208.287 39.4747 210.718 36.8151 218.618 37.8581C224.228 38.5986 230.371 40.5595 235.326 37.8581C235.785 39.6587 235.75 41.5712 235.227 43.3499C234.704 45.1285 233.716 46.692 232.391 47.8396C232.391 47.8396 230.595 49.1329 225.846 49.7692C221.096 50.4054 213.794 49.644 212.756 49.498C211.391 49.2894 211.101 50.76 210.363 54.7965C209.783 58.2801 209.241 64.2878 207.997 64.3191Z" fill="#263238"/>
<path d="M205.683 48.7266L201.232 46.0565C201.374 45.7224 201.576 45.4239 201.824 45.1791C202.072 44.9343 202.363 44.7483 202.677 44.6322C202.992 44.5162 203.324 44.4726 203.655 44.5041C203.985 44.5355 204.306 44.6414 204.598 44.8153C205.197 45.1843 205.645 45.7978 205.847 46.5271C206.05 47.2564 205.991 48.0447 205.683 48.7266Z" fill="#263238"/>
<path d="M221.614 80.1623C221.614 80.1623 215.004 78.6812 212.694 77.3045C211.34 76.5149 210.23 75.2905 209.506 73.7896C209.852 75.3026 210.469 76.7219 211.32 77.9616C213.003 80.3709 221.604 82.1336 221.604 82.1336L221.614 80.1623Z" fill="#9A4A4D"/>
<path d="M220.024 61.0855C220.01 61.3743 219.92 61.652 219.765 61.8844C219.611 62.1167 219.399 62.2935 219.155 62.3929C218.912 62.4923 218.647 62.51 218.395 62.4438C218.142 62.3776 217.913 62.2303 217.735 62.0203C217.556 61.8102 217.437 61.5465 217.392 61.2617C217.346 60.9769 217.376 60.6835 217.479 60.4177C217.581 60.1519 217.751 59.9253 217.967 59.766C218.184 59.6066 218.437 59.5215 218.697 59.521C218.877 59.5236 219.054 59.5665 219.219 59.6471C219.384 59.7277 219.533 59.8444 219.657 59.9903C219.781 60.1361 219.877 60.3082 219.94 60.4963C220.003 60.6845 220.032 60.8848 220.024 61.0855Z" fill="#263238"/>
<path d="M218.622 55.5164L215.817 57.2582C215.614 56.8261 215.568 56.3229 215.69 55.8543C215.812 55.3857 216.092 54.9879 216.471 54.7446C216.658 54.6365 216.862 54.5708 217.071 54.5512C217.28 54.5315 217.491 54.5584 217.691 54.6301C217.891 54.7019 218.076 54.8172 218.236 54.9693C218.396 55.1214 218.527 55.3074 218.622 55.5164Z" fill="#263238"/>
<path d="M221.015 71.2871L224.035 72.5596C223.968 72.7852 223.861 72.9935 223.72 73.1723C223.58 73.351 223.409 73.4967 223.217 73.6007C223.026 73.7047 222.817 73.7649 222.604 73.7777C222.392 73.7906 222.179 73.7559 221.978 73.6756C221.572 73.4937 221.245 73.1433 221.065 72.6979C220.885 72.2526 220.867 71.7469 221.015 71.2871Z" fill="#9A4A4D"/>
<path d="M231.825 56.7477L229.244 54.5261C229.366 54.3321 229.521 54.1676 229.701 54.0425C229.882 53.9174 230.082 53.8344 230.292 53.7983C230.502 53.7622 230.716 53.7739 230.922 53.8327C231.127 53.8915 231.32 53.9961 231.488 54.1402C231.834 54.4433 232.062 54.8833 232.124 55.3688C232.187 55.8543 232.08 56.3481 231.825 56.7477Z" fill="#263238"/>
<path d="M231.031 60.669C231.022 60.9599 230.936 61.2414 230.785 61.4782C230.633 61.715 230.422 61.8967 230.178 62.0005C229.934 62.1043 229.668 62.1257 229.414 62.0619C229.159 61.9982 228.927 61.8521 228.746 61.642C228.566 61.432 228.445 61.1671 228.398 60.8807C228.352 60.5942 228.382 60.2989 228.485 60.0314C228.588 59.764 228.76 59.5365 228.978 59.3772C229.197 59.2179 229.452 59.1339 229.713 59.1358C229.89 59.1398 230.064 59.1827 230.226 59.262C230.388 59.3413 230.535 59.4553 230.657 59.5977C230.779 59.7401 230.876 59.908 230.94 60.0918C231.004 60.2756 231.035 60.4717 231.031 60.669Z" fill="#263238"/>
<path d="M224.289 59.2715L224.719 68.1474L228.88 66.5725L224.289 59.2715Z" fill="#9A4A4D"/>
<path d="M225.727 92.9807C224.913 95.1293 223.417 96.0054 220.697 96.3496C219.337 96.4543 217.973 96.2494 216.688 95.7473C215.402 95.2452 214.221 94.4565 213.217 93.4292L216.592 89.6848L220.874 93.2832L221.239 89.2676L225.727 92.9807Z" fill="#86C240"/>
<path opacity="0.1" d="M225.727 92.9807C224.913 95.1293 223.417 96.0054 220.697 96.3496C219.337 96.4543 217.973 96.2494 216.688 95.7473C215.402 95.2452 214.221 94.4565 213.217 93.4292L216.592 89.6848L220.874 93.2832L221.239 89.2676L225.727 92.9807Z" fill="black"/>
<path d="M223.597 91.854C223.992 93.1511 224.145 94.5249 224.045 95.8904C223.918 97.1095 223.501 98.2686 222.839 99.2489C222.41 99.5542 221.924 99.745 221.418 99.8066C220.912 99.8681 220.4 99.7986 219.922 99.6035C219.047 98.7718 218.344 97.7392 217.86 96.5764C217.376 95.4136 217.122 94.1478 217.117 92.8657L220.857 93.3351L223.597 91.854Z" fill="#86C240"/>
<path d="M222.836 99.1562C222.836 99.1562 227.23 126.274 227.408 128.36C227.585 130.446 224.883 138.311 223.21 138.373C221.536 138.436 218.245 131.416 218.189 129.435C218.133 127.453 219.919 99.4692 219.919 99.4692L222.836 99.1562Z" fill="#86C240"/>
<path opacity="0.1" d="M219.92 99.5529C220.391 99.7844 220.909 99.8735 221.421 99.8113C221.933 99.749 222.421 99.5376 222.837 99.1982L222.902 99.6259C222.483 100.002 221.989 100.26 221.462 100.378C220.935 100.496 220.39 100.471 219.873 100.304L219.92 99.5529Z" fill="black"/>
<path d="M220.846 93.2838L208.458 82.7599L208.402 79.6309C208.402 79.6309 205.522 80.8407 204.877 86.5147C206.875 91.4221 210.27 95.4556 214.535 97.9877L217.135 92.7727L220.846 93.2838Z" fill="#E0E0E0"/>
<path d="M221.614 81.0703C223.216 81.3652 224.65 82.3504 225.607 83.8134C226.841 86.0872 226.542 94.8067 226.542 94.8067L223.596 91.855L220.848 93.336C221.109 90.4261 221.624 85.138 221.624 85.138L221.614 81.0703Z" fill="#E0E0E0"/>
<path d="M298.327 327.218C298.822 327.958 298.916 329.648 299.411 331.932C299.907 334.216 300.085 335.989 299.748 337.147C299.231 338.292 298.493 339.295 297.588 340.085C296.683 340.874 295.633 341.431 294.512 341.715C291.96 342.169 289.348 341.54 287.191 339.953C283.975 337.804 282.713 336.167 275.373 335.572C271.57 335.298 267.954 333.63 265.088 330.826C262.283 328.021 262.938 323.046 267.837 323.077C273.718 323.077 281.965 324.266 289.94 323.077L298.327 327.218Z" fill="#263238"/>
<path d="M326.768 316.923C327.264 317.664 327.357 319.353 327.853 321.637C328.348 323.922 328.526 325.695 328.189 326.852C327.672 327.997 326.935 329 326.03 329.79C325.124 330.58 324.074 331.137 322.953 331.421C320.401 331.874 317.79 331.246 315.633 329.658C312.416 327.51 311.154 325.872 303.814 325.278C300.011 325.004 296.395 323.335 293.53 320.532C290.725 317.726 291.379 312.751 296.279 312.782C302.16 312.782 310.406 313.971 318.381 312.782L326.768 316.923Z" fill="#263238"/>
<path d="M326.785 310.029V318.06C326.785 318.06 325.794 320.73 321.689 320.897C320.635 320.971 319.58 320.744 318.626 320.236C317.673 319.729 316.851 318.958 316.238 317.997V310.029H326.785Z" fill="#FFA8A7"/>
<path d="M313.032 257.483C312.976 267.475 315.547 313.555 315.547 313.555C315.547 313.555 319.212 318.718 327.169 313.555L329.871 262.448L313.032 257.483Z" fill="#37474F"/>
<path d="M299.764 320.521L298.324 328.553C298.324 328.553 297.333 331.223 293.229 331.39C292.174 331.466 291.12 331.238 290.167 330.729C289.214 330.219 288.394 329.445 287.787 328.48L288.367 319.249L299.764 320.521Z" fill="#FFA8A7"/>
<path d="M291.587 271.25C290.83 275.861 287.744 322.066 287.744 322.066C287.744 322.066 291.811 328.386 299.768 323.213L308.248 278.124L291.587 271.25Z" fill="#37474F"/>
<path d="M313.363 288.982V352.824C313.349 353.117 313.273 353.402 313.141 353.656C313.01 353.91 312.826 354.125 312.605 354.285L310.558 355.609C310.322 355.738 310.063 355.805 309.801 355.805C309.538 355.805 309.279 355.738 309.043 355.609L306.996 354.295C306.777 354.131 306.595 353.913 306.463 353.658C306.332 353.403 306.255 353.118 306.238 352.824V288.982C306.238 288.221 306.509 287.49 306.991 286.95C307.473 286.411 308.127 286.106 308.809 286.104H310.792C311.474 286.106 312.128 286.411 312.61 286.95C313.092 287.49 313.363 288.221 313.363 288.982Z" fill="#455A64"/>
<path d="M308.024 286.083C308.496 286.085 308.948 286.296 309.281 286.67C309.614 287.043 309.801 287.548 309.801 288.075V355.098C309.801 355.63 309.464 355.849 309.043 355.588L306.968 354.253C306.755 354.097 306.578 353.887 306.452 353.641C306.325 353.394 306.252 353.118 306.238 352.835V288.075C306.238 287.546 306.426 287.04 306.761 286.666C307.096 286.292 307.55 286.083 308.024 286.083Z" fill="#263238"/>
<path d="M382.191 288.982V352.824C382.207 353.118 382.285 353.403 382.418 353.657C382.551 353.911 382.736 354.126 382.958 354.285L384.996 355.609C385.234 355.738 385.494 355.804 385.758 355.804C386.022 355.804 386.283 355.738 386.52 355.609L388.559 354.295C388.779 354.133 388.962 353.915 389.094 353.66C389.225 353.405 389.301 353.119 389.316 352.824V288.982C389.316 288.221 389.045 287.49 388.563 286.95C388.081 286.411 387.428 286.106 386.745 286.104H384.763C384.08 286.106 383.426 286.411 382.944 286.95C382.462 287.49 382.191 288.221 382.191 288.982Z" fill="#455A64"/>
<path d="M387.544 286.083C387.071 286.085 386.618 286.296 386.284 286.669C385.949 287.042 385.76 287.547 385.758 288.075V355.098C385.758 355.63 386.104 355.849 386.515 355.588L388.591 354.253C388.803 354.097 388.98 353.887 389.107 353.641C389.233 353.394 389.306 353.118 389.32 352.835V288.075C389.32 287.548 389.133 287.043 388.8 286.67C388.467 286.296 388.016 286.085 387.544 286.083Z" fill="#263238"/>
<path d="M351.343 311.521V377.23C351.33 377.525 351.255 377.812 351.123 378.067C350.991 378.323 350.807 378.54 350.586 378.701L348.538 380.015C348.304 380.149 348.044 380.219 347.781 380.219C347.518 380.219 347.258 380.149 347.024 380.015L344.976 378.701C344.756 378.538 344.573 378.321 344.442 378.065C344.311 377.81 344.234 377.524 344.219 377.23V311.521C344.221 311.263 344.315 311.016 344.479 310.835C344.644 310.653 344.866 310.551 345.098 310.551H350.464C350.696 310.551 350.918 310.653 351.083 310.835C351.247 311.016 351.341 311.263 351.343 311.521Z" fill="#455A64"/>
<path d="M345.096 310.551H346.9C347.132 310.551 347.354 310.653 347.519 310.835C347.683 311.016 347.777 311.263 347.779 311.521V379.556C347.779 380.099 347.443 380.318 347.022 380.047L344.974 378.732C344.755 378.57 344.572 378.352 344.44 378.097C344.309 377.841 344.232 377.556 344.217 377.262V311.553C344.215 311.422 344.235 311.292 344.278 311.171C344.322 311.05 344.386 310.939 344.468 310.846C344.55 310.752 344.647 310.678 344.755 310.628C344.863 310.577 344.979 310.551 345.096 310.551Z" fill="#263238"/>
<path d="M301.703 290.494V291.381C301.734 292.184 301.917 292.97 302.239 293.689C302.561 294.408 303.016 295.043 303.573 295.553L345.834 322.598C346.414 323.015 347.082 323.255 347.771 323.294C348.46 323.332 349.147 323.168 349.761 322.817L392.396 295.417C392.984 294.987 393.472 294.409 393.823 293.73C394.174 293.05 394.377 292.289 394.416 291.506V290.609C394.379 289.84 394.164 289.094 393.792 288.445C393.42 287.796 392.904 287.266 392.293 286.906L349.686 259.465C349.02 259.17 348.306 259.037 347.59 259.073C346.875 259.109 346.174 259.313 345.535 259.673L303.751 286.583C303.158 287.009 302.664 287.586 302.308 288.265C301.952 288.945 301.745 289.709 301.703 290.494Z" fill="#86C240"/>
<g opacity="0.4">
<path d="M303.748 286.583L345.532 259.673C346.171 259.313 346.872 259.109 347.587 259.073C348.303 259.037 349.017 259.17 349.683 259.465L392.29 286.896C393.459 287.501 393.506 288.575 392.393 289.295L349.805 316.653C349.19 317.002 348.503 317.164 347.814 317.124C347.124 317.084 346.457 316.842 345.878 316.423L303.617 289.409C303.382 289.269 303.188 289.058 303.058 288.799C302.927 288.541 302.865 288.246 302.879 287.95C302.893 287.654 302.981 287.368 303.135 287.126C303.289 286.884 303.502 286.695 303.748 286.583Z" fill="white"/>
</g>
<path d="M381.652 269.717C381.652 269.717 344.524 257.201 338.072 255.251C331.621 253.301 319.233 249.963 315.633 251.767C312.033 253.572 310.182 255.679 309.845 261.499C309.78 262.594 309.845 267.923 309.845 267.923C309.845 267.923 327.788 274.119 342.495 274.119C357.202 274.119 381.652 269.717 381.652 269.717Z" fill="#263238"/>
<path d="M350.312 199.314L350.041 214.406L363.084 219.215L364.87 198.699L350.312 199.314Z" fill="#FFA8A7"/>
<path d="M340.036 184.827C340.036 184.827 337.166 190.428 337.634 190.918C338.101 191.408 340.523 191.783 340.523 191.783L340.036 184.827Z" fill="#F28F8F"/>
<path d="M346.98 166.397C344.175 168.567 341.155 172.582 339.995 184.264C338.733 197.072 341.482 201.192 342.8 202.256C344.67 203.841 352.272 203.58 354.955 202.193C358.34 200.451 364.969 195.727 367.774 188.634C371.083 180.29 370.747 169.933 365.417 166.627C357.891 161.985 349.383 164.551 346.98 166.397Z" fill="#FFA8A7"/>
<path d="M342.205 171.038C343.719 172.987 345.529 174.622 347.553 175.868C348.852 178.162 346.767 184.483 349.619 186.016C349.619 186.016 350.928 181.229 354.556 182.021C358.183 182.814 358.501 188.06 356.061 191.127C353.621 194.193 351.508 192.868 351.508 192.868C351.365 194.466 351.591 196.077 352.166 197.549C352.74 199.021 353.644 200.304 354.789 201.275C356.204 202.346 357.829 203.02 359.527 203.24C361.225 203.459 362.945 203.218 364.541 202.537C367.01 201.494 371.142 197.645 373.452 192.535C378.323 181.719 379.454 172.843 373.255 169.589C372.769 164.467 370.852 162.423 366.795 161.172C358.081 158.481 351.022 164.467 343.673 162.778C339.839 161.86 340.036 168.108 342.205 171.038Z" fill="#263238"/>
<path d="M366.836 165.844L371.351 163.685C371.234 163.339 371.055 163.022 370.826 162.755C370.596 162.488 370.32 162.275 370.014 162.13C369.709 161.985 369.38 161.91 369.048 161.911C368.716 161.911 368.387 161.987 368.082 162.132C367.777 162.278 367.501 162.492 367.272 162.76C367.043 163.028 366.865 163.345 366.748 163.691C366.632 164.038 366.579 164.408 366.594 164.778C366.609 165.148 366.691 165.511 366.836 165.844Z" fill="#263238"/>
<path d="M380.411 264.867C380.411 272.825 381.346 281.409 378.345 287.239C375.475 292.882 362.815 304.637 347.64 301.789C337.73 299.922 305.697 286.311 305.697 286.311C305.697 286.311 291.523 280.46 291.458 276.298C291.458 275.255 291.364 274.212 291.458 273.169C291.757 267.631 293.767 261.696 304.136 261.978C315.468 262.312 349.09 268.455 349.09 268.455L380.411 264.867Z" fill="#37474F"/>
<path d="M379.242 214.657C378.017 210.485 372.968 204.634 368.237 205.614C359.551 207.419 350.052 210.558 347.528 211.382C347.528 211.382 348.659 232.743 338.832 239.209L338.486 276.758C338.486 276.758 339.197 279.438 342.946 282.098C347.004 284.976 354.858 286.27 364.731 283.256C377.998 279.24 380.411 270.739 380.411 270.739C380.411 270.739 380.308 245.561 380.411 234.047C380.504 223.627 380.083 217.515 379.242 214.657Z" fill="#F0F0F0"/>
<path d="M338.784 244.226C338.784 244.226 343.711 238.531 345.525 231.637C345.525 231.637 345.796 241.911 338.756 247.355L338.784 244.226Z" fill="#E0E0E0"/>
<path d="M281.834 208.557L306.265 210.367L325.738 199.854L342.591 231.143L322.874 239.223L323.164 240.068L319.046 241.18L318.69 240.446L296.928 239.213L281.834 208.557Z" fill="#455A64"/>
<path d="M305.896 209.582C305.896 209.582 308.463 205.597 314.414 203.635C317.121 202.74 321.363 202.596 324.732 199.692L339.801 228.779C339.801 228.779 327.012 232.122 319.997 239.578L305.896 209.582Z" fill="white"/>
<path d="M319.997 239.56L305.896 209.582C305.896 209.582 292.163 204.965 287.271 205.93L282.545 207.98L297.618 238.23L319.997 239.56Z" fill="white"/>
<path d="M319.998 239.56C319.998 239.56 305.723 209.462 305.876 209.66C301.332 208.122 296.694 206.952 291.999 206.161C290.442 205.893 288.86 205.851 287.293 206.036C287.372 205.99 282.562 208.105 282.575 208.086L282.625 207.924L297.665 238.198C297.392 238.133 320.051 239.583 320.014 239.583L319.998 239.56ZM319.998 239.56L297.574 238.299C297.491 238.087 282.467 208.109 282.389 207.92L282.5 207.874L287.252 205.824C288.841 205.64 290.445 205.685 292.024 205.958C296.726 206.767 301.371 207.952 305.922 209.503C306.021 209.503 319.935 239.514 319.993 239.56H319.998Z" fill="#EBEBEB"/>
<path d="M287.276 205.93L301.02 235.806C301.02 235.806 313.917 237.246 319.997 239.559L297.61 238.23L282.545 207.98L287.276 205.93Z" fill="#EBEBEB"/>
<path d="M308.971 211.226C310.008 210.209 311.145 209.326 312.36 208.594C313.57 207.849 314.843 207.238 316.16 206.771C317.48 206.309 318.817 205.944 320.154 205.566C320.82 205.376 321.486 205.187 322.148 204.979C322.816 204.796 323.472 204.56 324.11 204.273C322.835 204.86 321.521 205.332 320.178 205.686C318.85 206.083 317.517 206.475 316.214 206.951C314.898 207.395 313.624 207.981 312.41 208.701C311.197 209.424 310.046 210.269 308.971 211.226Z" fill="#263238"/>
<path d="M320.932 206.677C322.148 206.179 323.415 205.851 324.619 205.398C324.049 205.743 323.445 206.011 322.819 206.197C322.198 206.397 321.568 206.557 320.932 206.677Z" fill="#263238"/>
<path d="M309.482 212.352C310.169 211.664 310.908 211.046 311.693 210.505C312.472 209.947 313.284 209.445 314.122 209.004C315.823 208.196 317.592 207.577 319.403 207.158C318.521 207.458 317.636 207.753 316.758 208.081C315.01 208.727 313.33 209.587 311.75 210.644C310.966 211.164 310.208 211.734 309.482 212.352Z" fill="#263238"/>
<path d="M309.99 213.479C311.028 212.462 312.165 211.579 313.38 210.847C314.59 210.102 315.862 209.491 317.179 209.023C318.5 208.561 319.836 208.197 321.173 207.818C321.839 207.629 322.506 207.44 323.168 207.232C323.836 207.048 324.492 206.812 325.13 206.525C323.855 207.112 322.54 207.585 321.198 207.938C319.869 208.335 318.537 208.728 317.233 209.203C315.917 209.647 314.643 210.233 313.43 210.953C312.216 211.676 311.065 212.521 309.99 213.479Z" fill="#263238"/>
<path d="M310.5 214.605C311.537 213.588 312.674 212.705 313.89 211.973C315.099 211.22 316.371 210.602 317.689 210.127C319.009 209.665 320.346 209.3 321.683 208.922C322.349 208.732 323.016 208.543 323.678 208.335C324.346 208.152 325.001 207.915 325.64 207.629C324.366 208.215 323.053 208.688 321.712 209.042C320.379 209.439 319.047 209.831 317.743 210.307C316.427 210.751 315.153 211.337 313.939 212.057C312.725 212.787 311.574 213.64 310.5 214.605Z" fill="#263238"/>
<path d="M316.777 211.932C317.544 211.624 318.314 211.317 319.087 211.009C319.857 210.699 320.655 210.496 321.442 210.247L323.813 209.568C324.605 209.353 325.384 209.086 326.147 208.77C325.405 209.149 324.635 209.458 323.846 209.693C323.064 209.951 322.269 210.178 321.483 210.413C320.697 210.649 319.898 210.875 319.124 211.133C318.35 211.392 317.564 211.683 316.777 211.932Z" fill="#263238"/>
<path d="M311.006 215.732C311.701 214.989 312.467 214.332 313.29 213.774C313.704 213.497 314.118 213.225 314.553 212.989C314.983 212.751 315.424 212.537 315.873 212.348C314.173 213.33 312.546 214.462 311.006 215.732Z" fill="#263238"/>
<path d="M311.518 216.863C312.554 215.843 313.691 214.959 314.907 214.227C316.116 213.474 317.389 212.855 318.707 212.38C320.027 211.918 321.364 211.554 322.7 211.175C323.367 210.986 324.033 210.796 324.695 210.589C325.365 210.404 326.021 210.168 326.661 209.882C325.386 210.468 324.071 210.94 322.729 211.295C321.397 211.692 320.064 212.085 318.76 212.56C317.445 213.004 316.171 213.59 314.957 214.31C313.742 215.04 312.591 215.895 311.518 216.863Z" fill="#263238"/>
<path d="M312.537 219.116C313.573 218.096 314.711 217.212 315.927 216.48C317.137 215.733 318.411 215.124 319.73 214.661C321.046 214.199 322.383 213.83 323.72 213.451C324.386 213.262 325.053 213.072 325.715 212.865C326.384 212.68 327.041 212.444 327.681 212.158C326.406 212.744 325.091 213.216 323.749 213.571C322.416 213.968 321.084 214.36 319.78 214.836C318.465 215.279 317.193 215.865 315.981 216.586C314.765 217.308 313.612 218.155 312.537 219.116Z" fill="#263238"/>
<path d="M320.52 215.783C321.215 215.492 321.927 215.266 322.634 215.039C323.342 214.813 324.066 214.619 324.795 214.476C324.1 214.767 323.392 214.989 322.68 215.219C321.968 215.45 321.252 215.635 320.52 215.783Z" fill="#263238"/>
<path d="M313.045 220.242C313.867 219.382 314.775 218.631 315.752 218.003C316.24 217.694 316.733 217.389 317.246 217.131C317.757 216.867 318.28 216.636 318.814 216.438C317.795 216.955 316.801 217.53 315.834 218.16C315.35 218.469 314.878 218.811 314.415 219.153C313.951 219.494 313.488 219.855 313.045 220.242Z" fill="#263238"/>
<path d="M313.551 221.369C314.587 220.349 315.724 219.465 316.94 218.733C318.151 217.986 319.425 217.377 320.744 216.914C322.06 216.452 323.397 216.082 324.734 215.704C325.4 215.515 326.066 215.325 326.729 215.118C327.398 214.933 328.055 214.697 328.694 214.411C327.419 214.997 326.105 215.469 324.763 215.824C323.43 216.221 322.097 216.613 320.794 217.089C319.479 217.532 318.206 218.118 316.994 218.839C315.778 219.561 314.625 220.408 313.551 221.369Z" fill="#263238"/>
<path d="M314.574 223.622C315.61 222.602 316.748 221.717 317.964 220.985C319.174 220.239 320.448 219.63 321.767 219.166C323.083 218.705 324.424 218.335 325.757 217.957C326.423 217.767 327.09 217.578 327.752 217.37C328.426 217.184 329.087 216.944 329.73 216.655C328.455 217.24 327.14 217.713 325.799 218.068C324.466 218.469 323.133 218.857 321.829 219.333C320.514 219.775 319.241 220.363 318.03 221.087C316.809 221.808 315.651 222.656 314.574 223.622Z" fill="#263238"/>
<path d="M315.08 224.749C316.116 223.729 317.254 222.845 318.47 222.113C319.681 221.369 320.955 220.76 322.273 220.294C323.589 219.832 324.93 219.463 326.263 219.084C326.929 218.895 327.596 218.706 328.258 218.498C328.927 218.313 329.584 218.077 330.224 217.792C328.949 218.379 327.634 218.852 326.292 219.204C324.959 219.606 323.627 219.994 322.323 220.469C321.007 220.912 319.735 221.5 318.524 222.224C317.307 222.942 316.154 223.788 315.08 224.749Z" fill="#263238"/>
<path d="M326.061 221.757C326.913 221.425 327.786 221.171 328.651 220.898L329.951 220.501C330.365 220.358 330.812 220.22 331.238 220.04C330.425 220.483 329.571 220.829 328.693 221.074C327.824 221.332 326.946 221.572 326.061 221.757Z" fill="#263238"/>
<path d="M320.621 223.798C320.981 223.59 321.341 223.387 321.71 223.198C322.078 223.008 322.459 222.861 322.839 222.708C323.605 222.425 324.386 222.197 325.178 222.025C324.42 222.339 323.651 222.593 322.893 222.884C322.136 223.175 321.383 223.512 320.621 223.798Z" fill="#263238"/>
<path d="M316.1 227.001C316.554 226.485 317.053 226.021 317.59 225.616C317.863 225.422 318.132 225.224 318.417 225.048C318.698 224.87 318.987 224.708 319.282 224.563C318.215 225.381 317.151 226.161 316.1 227.001Z" fill="#263238"/>
<path d="M327.242 222.689C327.987 222.394 328.749 222.168 329.502 221.923L330.632 221.567C331.008 221.443 331.385 221.323 331.758 221.17C331.051 221.565 330.309 221.874 329.543 222.094C328.778 222.329 328.012 222.542 327.242 222.689Z" fill="#263238"/>
<path d="M316.607 228.13C317.261 227.462 317.968 226.861 318.718 226.334C319.463 225.795 320.237 225.308 321.036 224.875C322.653 224.065 324.341 223.446 326.073 223.028C325.245 223.323 324.384 223.61 323.548 223.919C322.714 224.233 321.898 224.606 321.106 225.036C320.307 225.447 319.531 225.909 318.78 226.421C318.029 226.946 317.304 227.517 316.607 228.13Z" fill="#263238"/>
<path d="M317.117 229.255C318.153 228.235 319.291 227.35 320.507 226.618C321.718 225.875 322.992 225.265 324.31 224.799C325.626 224.338 326.967 223.968 328.3 223.59C328.966 223.4 329.633 223.211 330.295 223.003C330.964 222.819 331.621 222.583 332.261 222.297C330.986 222.884 329.671 223.357 328.329 223.71C326.996 224.111 325.668 224.499 324.36 224.975C323.045 225.419 321.773 226.007 320.561 226.729C319.345 227.45 318.193 228.296 317.117 229.255Z" fill="#263238"/>
<path d="M323.395 226.577C324.915 225.894 326.478 225.334 328.071 224.901L330.443 224.222C331.235 224.006 332.016 223.74 332.781 223.423C331.295 224.204 329.681 224.591 328.113 225.081L325.749 225.783C324.951 226.027 324.164 226.277 323.395 226.577Z" fill="#263238"/>
<path d="M317.625 230.381C318.296 229.664 319.033 229.028 319.823 228.483C320.237 228.22 320.617 227.953 321.035 227.722C321.449 227.488 321.873 227.278 322.306 227.094C320.677 228.062 319.112 229.161 317.625 230.381Z" fill="#263238"/>
<path d="M318.141 231.507C319.177 230.487 320.314 229.603 321.53 228.871C322.742 228.127 324.016 227.518 325.334 227.052C326.65 226.59 327.991 226.221 329.324 225.842C329.99 225.653 330.656 225.463 331.323 225.256C331.99 225.071 332.646 224.835 333.284 224.549C332.01 225.137 330.695 225.609 329.353 225.962C328.024 226.364 326.691 226.752 325.383 227.227C324.069 227.672 322.796 228.26 321.584 228.982C320.369 229.703 319.216 230.548 318.141 231.507Z" fill="#263238"/>
<path d="M318.645 232.634C319.269 231.997 319.941 231.419 320.652 230.907C321.361 230.39 322.096 229.919 322.854 229.495C323.615 229.08 324.407 228.74 325.221 228.479C326.024 228.193 326.835 227.929 327.65 227.68C326.856 227.988 326.058 228.296 325.258 228.604C324.454 228.884 323.673 229.241 322.924 229.67C322.164 230.073 321.426 230.524 320.714 231.023C319.999 231.519 319.308 232.057 318.645 232.634Z" fill="#263238"/>
<path d="M291.195 208.778C293.513 208.954 295.814 209.337 298.107 209.743C299.249 209.974 300.387 210.23 301.522 210.51C302.66 210.773 303.781 211.105 304.899 211.456C303.765 211.175 302.635 210.888 301.497 210.63C300.359 210.371 299.22 210.136 298.078 209.928C296.936 209.72 295.793 209.466 294.643 209.3C293.492 209.134 292.346 208.935 291.195 208.778Z" fill="#263238"/>
<path d="M299.402 210.995C299.907 211.064 300.412 211.138 300.909 211.258L302.403 211.613C303.392 211.872 304.385 212.126 305.362 212.449C304.352 212.278 303.359 212.033 302.366 211.793C301.372 211.553 300.392 211.258 299.402 210.995Z" fill="#263238"/>
<path d="M291.648 209.767C292.725 209.809 293.792 209.947 294.856 210.095C295.92 210.243 296.979 210.455 298.026 210.727C296.954 210.607 295.895 210.432 294.831 210.266C293.767 210.1 292.716 209.961 291.648 209.767Z" fill="#263238"/>
<path d="M292.127 210.76C293.878 210.871 295.612 211.148 297.342 211.415C299.072 211.683 300.794 212.08 302.495 212.56C300.765 212.237 299.051 211.868 297.317 211.6C295.583 211.332 293.861 211.028 292.127 210.76Z" fill="#263238"/>
<path d="M292.594 211.751C294.911 211.927 297.208 212.31 299.501 212.716C300.649 212.947 301.789 213.203 302.92 213.483C304.054 213.751 305.18 214.078 306.293 214.434C305.163 214.148 304.033 213.861 302.895 213.603C301.757 213.344 300.619 213.109 299.472 212.901C298.326 212.693 297.188 212.439 296.041 212.273C294.895 212.107 293.744 211.913 292.594 211.751Z" fill="#263238"/>
<path d="M302.895 214.42C303.553 214.512 304.198 214.674 304.848 214.831C305.498 214.988 306.135 215.182 306.76 215.426C306.098 215.334 305.456 215.168 304.807 215.011C304.157 214.854 303.524 214.665 302.895 214.42Z" fill="#263238"/>
<path d="M293.062 212.744C294.499 212.823 295.927 213.021 297.346 213.243C298.766 213.464 300.185 213.755 301.584 214.129C298.741 213.658 295.906 213.187 293.062 212.744Z" fill="#263238"/>
<path d="M303.91 216.424C304.556 216.512 305.189 216.669 305.822 216.826C306.455 216.983 307.064 217.168 307.697 217.408C307.047 217.32 306.418 217.158 305.785 217.006C305.152 216.854 304.527 216.655 303.91 216.424Z" fill="#263238"/>
<path d="M300.135 215.639C300.647 215.679 301.157 215.751 301.662 215.856C302.168 215.954 302.669 216.086 303.16 216.253C302.648 216.214 302.138 216.141 301.633 216.036C301.127 215.938 300.626 215.806 300.135 215.639Z" fill="#263238"/>
<path d="M293.992 214.725C294.741 214.753 295.482 214.85 296.223 214.942C296.964 215.034 297.701 215.164 298.429 215.344C297.68 215.316 296.939 215.219 296.202 215.127C295.466 215.034 294.729 214.905 293.992 214.725Z" fill="#263238"/>
<path d="M294.461 215.732C296.779 215.907 299.08 216.291 301.373 216.701C302.515 216.929 303.653 217.183 304.787 217.463C305.925 217.731 307.047 218.059 308.164 218.414C307.03 218.133 305.9 217.842 304.766 217.583C303.632 217.325 302.486 217.089 301.344 216.882C300.201 216.674 299.059 216.42 297.913 216.254C296.766 216.087 295.616 215.88 294.461 215.732Z" fill="#263238"/>
<path d="M294.928 216.71C297.245 216.886 299.547 217.269 301.839 217.675C302.982 217.906 304.12 218.162 305.254 218.442C306.392 218.705 307.514 219.037 308.631 219.393C307.497 219.107 306.367 218.82 305.229 218.562C304.091 218.303 302.953 218.068 301.81 217.86C300.668 217.652 299.526 217.398 298.375 217.232C297.225 217.066 296.082 216.872 294.928 216.71Z" fill="#263238"/>
<path d="M295.396 217.703C296.99 217.795 298.571 218.021 300.148 218.275C301.725 218.529 303.289 218.866 304.837 219.291C303.264 219.018 301.696 218.714 300.123 218.46C298.55 218.206 296.973 217.947 295.396 217.703Z" fill="#263238"/>
<path d="M297.27 220.049L302.493 231.707C306.643 232.236 310.762 233.042 314.826 234.121L309.21 222.519C309.21 222.519 300.394 220.086 297.27 220.049Z" fill="#455A64"/>
<path d="M347.515 211.382C342.148 213.176 338.885 213.468 332.957 223.669C327.029 233.869 313.622 252.873 312.341 255.324C310.555 258.693 310.218 263.814 311.761 266.912C313.201 269.811 316.66 268.101 322.541 262.354C328.226 256.784 340.222 241.494 340.222 241.494C343.946 231.903 346.402 221.76 347.515 211.382Z" fill="#FFA8A7"/>
<path d="M347.515 211.382C344.857 212.007 342.26 212.926 339.765 214.125C337.163 215.067 334.866 216.836 333.154 219.215C328.339 226.391 322.131 238.521 322.131 238.521C322.131 238.521 323.234 247.908 333.603 251.246L338.699 244.32C340.96 241.624 342.816 238.539 344.196 235.184C346.581 229.458 349.208 220.373 347.515 211.382Z" fill="#F0F0F0"/>
<path d="M313.577 268.34C308.612 267.672 297.907 250.932 294.616 245.206C292.012 240.559 288.597 236.543 284.574 233.399C279.329 229.071 280.086 222.416 282.377 216.325C283.171 214.239 285.864 215.585 285.864 215.585L286.799 218.484L288.445 223.491C289.557 224.638 290.184 225.013 290.259 224.669C290.399 224.023 289.445 221.332 289.473 218.526C289.473 215.147 291.614 217.368 292.278 218.526C293.146 220.318 293.893 222.18 294.513 224.096C295.569 227.12 295.139 230.176 296.383 232.241C297.626 234.307 314.951 252.768 314.951 252.768L313.577 268.34Z" fill="#FFA8A7"/>
<path d="M358.734 269.781V311.866C358.741 312.013 358.778 312.157 358.843 312.285C358.908 312.414 358.999 312.524 359.108 312.606L360.137 313.263C360.254 313.33 360.384 313.365 360.516 313.365C360.647 313.365 360.777 313.33 360.894 313.263L361.913 312.606C362.025 312.526 362.118 312.416 362.185 312.288C362.252 312.159 362.29 312.014 362.297 311.866V269.781C362.297 269.399 362.161 269.033 361.919 268.763C361.677 268.493 361.349 268.341 361.006 268.341H360.015C359.846 268.341 359.679 268.379 359.523 268.451C359.367 268.524 359.225 268.63 359.106 268.764C358.987 268.897 358.893 269.056 358.829 269.231C358.765 269.405 358.733 269.592 358.734 269.781Z" fill="#263238"/>
<path d="M361.429 268.341C361.181 268.341 360.943 268.451 360.768 268.647C360.593 268.842 360.494 269.108 360.494 269.384V312.971C360.494 313.243 360.672 313.357 360.877 313.222L361.915 312.554C362.021 312.475 362.108 312.37 362.171 312.247C362.235 312.124 362.272 311.986 362.28 311.845V269.29C362.261 269.046 362.165 268.817 362.01 268.643C361.854 268.469 361.648 268.362 361.429 268.341Z" fill="#455A64"/>
<path d="M377.742 257.797V299.882C377.749 300.029 377.786 300.173 377.851 300.302C377.916 300.43 378.007 300.54 378.116 300.623L379.145 301.28C379.262 301.346 379.392 301.381 379.523 301.381C379.655 301.381 379.785 301.346 379.902 301.28L380.921 300.623C381.032 300.541 381.124 300.431 381.191 300.303C381.257 300.174 381.296 300.03 381.305 299.882V257.797C381.305 257.415 381.169 257.049 380.927 256.779C380.685 256.509 380.356 256.357 380.014 256.357H379.023C378.854 256.357 378.687 256.395 378.531 256.467C378.375 256.54 378.233 256.646 378.114 256.78C377.995 256.913 377.901 257.072 377.837 257.247C377.773 257.421 377.741 257.608 377.742 257.797Z" fill="#263238"/>
<path d="M380.406 256.357C380.174 256.37 379.954 256.479 379.79 256.662C379.626 256.845 379.529 257.09 379.518 257.348V301.029C379.518 301.3 379.695 301.415 379.901 301.28L380.939 300.612C381.044 300.533 381.132 300.428 381.195 300.305C381.258 300.182 381.295 300.044 381.303 299.903V257.348C381.292 257.088 381.193 256.842 381.027 256.658C380.861 256.475 380.639 256.368 380.406 256.357Z" fill="#455A64"/>
<path d="M389.019 222.72C388.396 222.381 387.715 222.193 387.022 222.17C386.329 222.147 385.639 222.288 384.999 222.585L351.255 239.961C350.646 240.301 350.132 240.821 349.769 241.463L349.61 241.755C349.535 241.922 349.46 242.089 349.395 242.266C349.228 242.709 349.139 243.183 349.133 243.664V271.533C349.154 272.291 349.335 273.033 349.659 273.7C349.984 274.366 350.444 274.938 351.003 275.371C351.593 275.686 352.233 275.868 352.886 275.906C353.539 275.943 354.192 275.836 354.808 275.59C354.883 275.568 354.955 275.537 355.023 275.496L356.697 274.631L388.757 258.109C389.368 257.753 389.885 257.225 390.258 256.577C390.63 255.93 390.844 255.185 390.88 254.417V226.548C390.858 225.792 390.679 225.053 390.356 224.388C390.033 223.724 389.575 223.152 389.019 222.72Z" fill="#86C240"/>
<path opacity="0.4" d="M390.918 226.548C390.956 226.255 390.916 225.956 390.806 225.686C390.695 225.417 390.517 225.189 390.293 225.03C390.069 224.871 389.809 224.786 389.544 224.787C389.278 224.788 389.019 224.874 388.796 225.035L355.062 242.412C354.454 242.758 353.94 243.28 353.575 243.924L349.779 241.473C350.139 240.828 350.65 240.306 351.257 239.961L384.991 222.574C385.631 222.277 386.321 222.136 387.014 222.159C387.707 222.183 388.388 222.37 389.011 222.71C389.577 223.137 390.045 223.707 390.376 224.374C390.707 225.041 390.893 225.786 390.918 226.548Z" fill="white"/>
<path opacity="0.1" d="M354.847 275.599C354.231 275.845 353.578 275.953 352.925 275.915C352.272 275.877 351.632 275.696 351.042 275.38C350.483 274.948 350.023 274.375 349.699 273.709C349.374 273.042 349.193 272.3 349.172 271.542V243.673C349.178 243.193 349.267 242.718 349.434 242.275C349.499 242.098 349.574 241.931 349.649 241.764L349.808 241.472L353.604 243.923C353.212 244.572 352.991 245.331 352.968 246.114V273.993C352.933 274.259 352.963 274.531 353.054 274.781C353.144 275.03 353.293 275.248 353.485 275.411C353.676 275.575 353.904 275.679 354.143 275.712C354.383 275.745 354.626 275.706 354.847 275.599Z" fill="black"/>
</svg>
